<?xml version="1.0" encoding="utf-8"?><!-- Uploaded to: SVG Repo, www.svgrepo.com, Generator: SVG Repo Mixer Tools -->
<svg width="800px" height="800px" viewBox="0 0 24 24" fill="none" xmlns="http://www.w3.org/2000/svg">
<path opacity="0.1" d="M3 15.024V10H12V3H15.024C19.9452 3 21 4.05476 21 8.976V14H12V21H8.976C4.05476 21 3 19.9452 3 15.024Z" fill="#323232"/>
<path d="M3 8.976C3 4.05476 4.05476 3 8.976 3H15.024C19.9452 3 21 4.05476 21 8.976V15.024C21 19.9452 19.9452 21 15.024 21H8.976C4.05476 21 3 19.9452 3 15.024V8.976Z" stroke="#323232" stroke-width="1.6"/>
<path d="M12 3V21" stroke="#323232" stroke-width="1.6" stroke-linecap="round" stroke-linejoin="round"/>
<path d="M3 10H12" stroke="#323232" stroke-width="1.6" stroke-linecap="round"/>
<path d="M12 14H21" stroke="#323232" stroke-width="1.6" stroke-linecap="round"/>
</svg>
